name ./resultDataOpenSim/trcMotMarkerGrf/sub06/grf-03-08.mot
datacolumns 19
datarows 15
range 0.51200000 0.56800000
endheader

                time	     ground_force_vx	     ground_force_vy	     ground_force_vz	     ground_force_px	     ground_force_py	     ground_force_pz	   l_ground_force_vx	   l_ground_force_vy	   l_ground_force_vz	   l_ground_force_px	   l_ground_force_py	   l_ground_force_pz	     ground_torque_x	     ground_torque_y	     ground_torque_z	   l_ground_torque_x	   l_ground_torque_y	   l_ground_torque_z	
          0.51200000	         98.90416020	        510.23909565	        -31.54083131	         -0.85557650	          0.00000000	          0.13142210	          0.00000000	          0.00000000	          0.00000000	          0.00000000	          0.00000000	          0.00000000	          0.00000000	          3.86367991	          0.00000000	          0.00000000	          0.00000000	          0.00000000	
          0.51600000	        101.21697703	        525.19976136	        -34.49258311	         -0.85241026	          0.00000000	          0.13233857	          0.00000000	          0.00000000	          0.00000000	          0.00000000	          0.00000000	          0.00000000	          0.00000000	          3.70816276	          0.00000000	          0.00000000	          0.00000000	          0.00000000	
          0.52000000	        103.12959039	        539.75945170	        -37.55911536	         -0.84908780	          0.00000000	          0.13323337	          0.00000000	          0.00000000	          0.00000000	          0.00000000	          0.00000000	          0.00000000	          0.00000000	          3.56387935	          0.00000000	          0.00000000	          0.00000000	          0.00000000	
          0.52400000	        104.88137862	        554.20336107	        -40.62852994	         -0.84570478	          0.00000000	          0.13406949	          0.00000000	          0.00000000	          0.00000000	          0.00000000	          0.00000000	          0.00000000	          0.00000000	          3.43373467	          0.00000000	          0.00000000	          0.00000000	          0.00000000	
          0.52800000	        106.72309608	        568.71739299	        -43.55578048	         -0.84235084	          0.00000000	          0.13482707	          0.00000000	          0.00000000	          0.00000000	          0.00000000	          0.00000000	          0.00000000	          0.00000000	          3.32047329	          0.00000000	          0.00000000	          0.00000000	          0.00000000	
          0.53200000	        108.88998542	        583.41022998	        -46.18136482	         -0.83911958	          0.00000000	          0.13549408	          0.00000000	          0.00000000	          0.00000000	          0.00000000	          0.00000000	          0.00000000	          0.00000000	          3.22693692	          0.00000000	          0.00000000	          0.00000000	          0.00000000	
          0.53600000	        111.58523633	        598.33841281	        -48.35733959	         -0.83611162	          0.00000000	          0.13605983	          0.00000000	          0.00000000	          0.00000000	          0.00000000	          0.00000000	          0.00000000	          0.00000000	          3.15573105	          0.00000000	          0.00000000	          0.00000000	          0.00000000	
          0.54000000	        114.96876777	        613.51892066	        -49.97708286	         -0.83341241	          0.00000000	          0.13651397	          0.00000000	          0.00000000	          0.00000000	          0.00000000	          0.00000000	          0.00000000	          0.00000000	          3.10839549	          0.00000000	          0.00000000	          0.00000000	          0.00000000	
          0.54400000	        119.14725857	        628.92601271	        -50.99912140	         -0.83106943	          0.00000000	          0.13684892	          0.00000000	          0.00000000	          0.00000000	          0.00000000	          0.00000000	          0.00000000	          0.00000000	          3.08449063	          0.00000000	          0.00000000	          0.00000000	          0.00000000	
          0.54800000	        124.16697487	        644.47344945	        -51.45634593	         -0.82909417	          0.00000000	          0.13706688	          0.00000000	          0.00000000	          0.00000000	          0.00000000	          0.00000000	          0.00000000	          0.00000000	          3.08109013	          0.00000000	          0.00000000	          0.00000000	          0.00000000	
          0.55200000	        130.01461698	        659.99963207	        -51.44585827	         -0.82747295	          0.00000000	          0.13718217	          0.00000000	          0.00000000	          0.00000000	          0.00000000	          0.00000000	          0.00000000	          0.00000000	          3.09294376	          0.00000000	          0.00000000	          0.00000000	          0.00000000	
          0.55600000	        136.63026988	        675.27216496	        -51.10045481	         -0.82617680	          0.00000000	          0.13721284	          0.00000000	          0.00000000	          0.00000000	          0.00000000	          0.00000000	          0.00000000	          0.00000000	          3.11321273	          0.00000000	          0.00000000	          0.00000000	          0.00000000	
          0.56000000	        143.92829307	        690.00630018	        -50.55477967	         -0.82516454	          0.00000000	          0.13717580	          0.00000000	          0.00000000	          0.00000000	          0.00000000	          0.00000000	          0.00000000	          0.00000000	          3.13444166	          0.00000000	          0.00000000	          0.00000000	          0.00000000	
          0.56400000	        151.81548353	        703.88784644	        -49.92547567	         -0.82438444	          0.00000000	          0.13709014	          0.00000000	          0.00000000	          0.00000000	          0.00000000	          0.00000000	          0.00000000	          0.00000000	          3.14944649	          0.00000000	          0.00000000	          0.00000000	          0.00000000	
          0.56800000	        160.20049169	        716.60180784	        -49.30756095	         -0.82378332	          0.00000000	          0.13697879	          0.00000000	          0.00000000	          0.00000000	          0.00000000	          0.00000000	          0.00000000	          0.00000000	          3.15199013	          0.00000000	          0.00000000	          0.00000000	          0.00000000	
